<?xml version="1.0" encoding="UTF-8" standalone="no"?>
<svg
   xmlns:dc="http://purl.org/dc/elements/1.1/"
   xmlns:cc="http://creativecommons.org/ns#"
   xmlns:rdf="http://www.w3.org/1999/02/22-rdf-syntax-ns#"
   xmlns:svg="http://www.w3.org/2000/svg"
   xmlns="http://www.w3.org/2000/svg"
   xmlns:sodipodi="http://sodipodi.sourceforge.net/DTD/sodipodi-0.dtd"
   xmlns:inkscape="http://www.inkscape.org/namespaces/inkscape"
   version="1.1"
   id="svg3699"
   width="20"
   height="20"
   viewBox="0 0 20 20"
   sodipodi:docname="uncertainty.svg"
   inkscape:version="1.0.1 (3bc2e813f5, 2020-09-07)">
  <metadata
     id="metadata3705">
    <rdf:RDF>
      <cc:Work
         rdf:about="">
        <dc:format>image/svg+xml</dc:format>
        <dc:type
           rdf:resource="http://purl.org/dc/dcmitype/StillImage" />
        <dc:title></dc:title>
      </cc:Work>
    </rdf:RDF>
  </metadata>
  <defs
     id="defs3703" />
  <sodipodi:namedview
     pagecolor="#ffffff"
     bordercolor="#666666"
     borderopacity="1"
     objecttolerance="10"
     gridtolerance="10"
     guidetolerance="10"
     inkscape:pageopacity="0"
     inkscape:pageshadow="2"
     inkscape:window-width="1878"
     inkscape:window-height="1248"
     id="namedview3701"
     showgrid="true"
     inkscape:zoom="22.627417"
     inkscape:cx="18.214697"
     inkscape:cy="12.256439"
     inkscape:window-x="208"
     inkscape:window-y="5"
     inkscape:window-maximized="1"
     inkscape:current-layer="layer2"
     inkscape:snap-page="true"
     inkscape:document-rotation="0">
    <inkscape:grid
       type="xygrid"
       id="grid3768"
       dotted="false" />
  </sodipodi:namedview>
  <g
     inkscape:groupmode="layer"
     id="layer2"
     inkscape:label="Layer 1">
    <g
       id="g942" />
    <text
       xml:space="preserve"
       style="font-size:24px;line-height:1.25;font-family:Impact;-inkscape-font-specification:Impact;letter-spacing:0px;word-spacing:0px;fill:#ff0000;fill-opacity:1"
       x="5.2876897"
       y="18.501747"
       id="text850"><tspan
         sodipodi:role="line"
         id="tspan848"
         x="5.2876897"
         y="18.501747"
         style="font-style:normal;font-variant:normal;font-weight:normal;font-stretch:normal;font-size:24px;font-family:Georgia;-inkscape-font-specification:Georgia;fill:#ff0000;fill-opacity:1" /></text>
    <g
       aria-label="😵"
       id="g1291"
       style="font-size:14.6667px;line-height:1.25;font-family:Impact;-inkscape-font-specification:Impact;letter-spacing:0px;word-spacing:0px;fill:#000000;fill-opacity:1;stroke:#000000;stroke-width:0.18897638;stroke-miterlimit:4;stroke-dasharray:none;stroke-opacity:1"
       transform="translate(0.35355336,0.35355336)">
      <path
         d="m 10.014432,1.7304647 q 1.138674,0 2.191411,0.2936205 1.052737,0.2936204 1.962244,0.830731 0.916669,0.5371107 1.668624,1.2890655 0.751955,0.7519549 1.289065,1.6686236 0.537111,0.9095073 0.830731,1.9622441 0.293621,1.0527368 0.293621,2.1914113 0,1.1386743 -0.293621,2.1914113 -0.29362,1.052737 -0.830731,1.969406 -0.53711,0.909507 -1.289065,1.661462 -0.751955,0.751955 -1.668624,1.289065 -0.909507,0.537111 -1.962244,0.830731 -1.052737,0.293621 -2.191411,0.293621 -1.1386748,0 -2.1914116,-0.293621 Q 6.7702836,17.614616 5.8536148,17.077505 4.9441075,16.540395 4.1921527,15.78844 3.4401978,15.036485 2.9030872,14.126978 2.3659766,13.210309 2.0723562,12.157572 1.7787357,11.104835 1.7787357,9.9661607 q 0,-1.1386745 0.2936205,-2.1914113 Q 2.3659766,6.7220126 2.9030872,5.8125053 3.4401978,4.8958366 4.1921527,4.1438817 4.9441075,3.3919269 5.8536148,2.8548162 6.7702836,2.3177056 7.8230204,2.0240852 8.8757572,1.7304647 10.014432,1.7304647 Z m 0,15.4401393 q 0.995445,0 1.912113,-0.257813 0.923831,-0.257813 1.725916,-0.73047 0.802085,-0.465496 1.453779,-1.11719 0.658856,-0.658856 1.124352,-1.460941 0.472657,-0.802085 0.73047,-1.718754 0.257813,-0.92383 0.257813,-1.9192753 0,-0.995445 -0.257813,-1.9121138 Q 16.703249,7.1302167 16.230592,6.3281315 15.765096,5.5260463 15.10624,4.8743521 14.454546,4.2154965 13.652461,3.7500006 12.850376,3.2773433 11.926545,3.0195302 11.009877,2.7617171 10.014432,2.7617171 q -0.9954453,0 -1.9192756,0.2578131 Q 7.1784877,3.2773433 6.3764025,3.7500006 5.5743173,4.2154965 4.9154616,4.8743521 4.2637674,5.5260463 3.7911101,6.3281315 3.3256142,7.1302167 3.0678011,8.0540469 q -0.257813,0.9166688 -0.257813,1.9121138 0,0.9954453 0.257813,1.9192753 0.2578131,0.916669 0.723309,1.718754 0.4726573,0.802085 1.1243515,1.460941 0.6588557,0.651694 1.4609409,1.11719 0.8020852,0.472657 1.7187539,0.73047 0.9238303,0.257813 1.9192756,0.257813 z M 9.369899,9.1927214 q 0,0.4010426 -0.150391,0.7591164 Q 9.069117,10.30275 8.8041425,10.567725 8.5391679,10.825538 8.1882556,10.975929 7.8373434,11.12632 7.4363008,11.12632 q -0.2936205,0 -0.5514336,-0.107423 Q 6.6270541,10.904314 6.4336943,10.710954 6.247496,10.517594 6.1329124,10.259781 6.0254902,10.001968 6.0254902,9.7083476 q 0,-0.2363287 0.093099,-0.4440114 Q 6.2116886,9.0494919 6.369241,8.8919395 6.5267935,8.734387 6.7344762,8.6412879 q 0.2148443,-0.093099 0.451173,-0.093099 0.1074221,0 0.2363286,0.035807 0.136068,0.035807 0.2506516,0.1074221 0.1145836,0.064453 0.1861984,0.1647139 0.078776,0.1002607 0.078776,0.2291672 0,0.1647139 -0.1145836,0.2792975 -0.1145836,0.1074221 -0.2792975,0.1074221 -0.1575525,0 -0.2721361,-0.1145836 -0.021484,-0.014323 -0.042969,-0.021484 -0.014323,-0.014323 -0.042969,-0.014323 -0.164714,0 -0.2792976,0.1145836 -0.1074221,0.1074221 -0.1074221,0.272136 0,0.2721361 0.1861984,0.4583343 0.1861983,0.186198 0.4583343,0.186198 0.2363287,0 0.4440115,-0.0931 0.2148442,-0.0931 0.3723967,-0.250651 0.1575524,-0.1575528 0.2434901,-0.3652356 0.093099,-0.2148442 0.093099,-0.4511729 0,-0.2936204 -0.1145836,-0.5514335 Q 8.374454,8.3834748 8.1810941,8.1972764 7.9948958,8.0039166 7.7370827,7.8964945 7.4792696,7.7819109 7.1856492,7.7819109 q -0.4010426,0 -0.7519549,0.150391 Q 6.082782,8.0826928 5.8178075,8.3476674 5.5528329,8.6054805 5.4024419,8.9563928 5.252051,9.307305 5.252051,9.7083476 q 0,0.2578131 0.05013,0.4869804 0.05013,0.229167 0.1432295,0.465496 0.028646,0.06445 0.028646,0.150391 0,0.164714 -0.1145836,0.279297 -0.1074221,0.107422 -0.2721361,0.107422 -0.121745,0 -0.2148442,-0.06445 -0.085938,-0.06445 -0.136068,-0.171875 -0.136068,-0.293621 -0.2005213,-0.608726 -0.057292,-0.322266 -0.057292,-0.6445324 0,-0.558595 0.2076827,-1.0527368 0.2148447,-0.4941447 0.5800799,-0.85938 0.3723967,-0.3652352 0.8665385,-0.5729179 0.4941417,-0.2148443 1.0527368,-0.2148443 0.4511729,0 0.8522154,0.1718754 0.4010426,0.1718754 0.6946631,0.4654959 0.2936205,0.2936204 0.4654959,0.694663 0.1718754,0.4010426 0.1718754,0.8522155 z m 6.180353,-0.5156262 q 0,0.5585951 -0.214845,1.0527368 -0.214844,0.494142 -0.580079,0.859377 -0.365235,0.365235 -0.859377,0.580079 -0.494142,0.214845 -1.052737,0.214845 -0.451173,0 -0.852215,-0.171876 Q 11.589956,11.040382 11.296336,10.7396 11.002715,10.438818 10.83084,10.044937 10.658964,9.6438943 10.658964,9.1927214 q 0,-0.4010426 0.150391,-0.7519548 0.150391,-0.3509123 0.415366,-0.6087254 0.264974,-0.2649745 0.615887,-0.4153655 0.350912,-0.150391 0.751955,-0.150391 0.29362,0 0.551433,0.1145836 0.257813,0.1074221 0.444012,0.3007819 0.193359,0.1933599 0.300782,0.451173 0.114583,0.2578131 0.114583,0.5514335 0,0.2434902 -0.0931,0.4583344 -0.0931,0.2076828 -0.250652,0.3652352 -0.157552,0.150391 -0.372396,0.2434902 -0.207683,0.085938 -0.444012,0.085938 -0.107422,0 -0.24349,-0.035807 -0.128906,-0.035807 -0.24349,-0.1002607 -0.114584,-0.071615 -0.19336,-0.1718754 -0.07161,-0.1002606 -0.07161,-0.2291671 0,-0.164714 0.114584,-0.2721361 0.114584,-0.1145836 0.272136,-0.1145836 0.08594,0 0.136068,0.028646 0.05729,0.021484 0.0931,0.05013 0.03581,0.021484 0.06445,0.05013 0.03581,0.021484 0.07161,0.021484 0.164714,0 0.272136,-0.1074221 0.114584,-0.1145836 0.114584,-0.2792976 0,-0.272136 -0.186198,-0.4511729 -0.186199,-0.1861983 -0.458335,-0.1861983 -0.236329,0 -0.451173,0.093099 -0.207683,0.085938 -0.365235,0.2434901 -0.157552,0.1575524 -0.250652,0.3723967 -0.08594,0.2076828 -0.08594,0.4440114 0,0.2936205 0.107422,0.5514336 0.114583,0.2578135 0.300782,0.4511735 0.19336,0.19336 0.451173,0.307943 0.257813,0.107422 0.551433,0.107422 0.401043,0 0.751955,-0.150391 0.350912,-0.150391 0.615887,-0.415365 0.264974,-0.2649751 0.415365,-0.6158874 0.150391,-0.3509123 0.150391,-0.7519549 0,-0.2506516 -0.05013,-0.4869802 -0.05013,-0.2363287 -0.143229,-0.4654959 -0.02865,-0.064453 -0.02865,-0.150391 0,-0.1647139 0.114583,-0.272136 0.114584,-0.1074221 0.272136,-0.1074221 0.250652,0 0.350913,0.2291672 0.136068,0.2864589 0.193359,0.6158868 0.06445,0.3222664 0.06445,0.6373712 z m -5.53582,3.3515698 q 0.322266,0 0.601564,0.121746 0.279297,0.121745 0.48698,0.329427 0.214844,0.207683 0.336589,0.486981 0.121745,0.279297 0.121745,0.601564 v 0.515626 q 0,0.322266 -0.121745,0.601564 -0.121745,0.279297 -0.336589,0.48698 -0.207683,0.214844 -0.48698,0.336589 -0.279298,0.121745 -0.601564,0.121745 -0.3222667,0 -0.6015642,-0.121745 Q 9.1335703,15.387397 8.918726,15.172553 8.7110433,14.96487 8.5892982,14.685573 8.4675531,14.406275 8.4675531,14.084009 v -0.515626 q 0,-0.322267 0.1217451,-0.601564 0.1217451,-0.279298 0.3294278,-0.486981 0.2148443,-0.207682 0.4941418,-0.329427 0.2792975,-0.121746 0.6015642,-0.121746 z M 4.8653313,6.2135479 q 0,-0.1790369 0.1289066,-0.3437508 Q 5.3021813,5.4974004 5.7032239,5.20378 6.1114279,4.9101595 6.5626008,4.7096382 7.0137738,4.5091169 7.500754,4.4088563 7.9877343,4.3014341 8.4675531,4.3014341 q 0.2076828,0 0.3580738,0.1575525 0.1575524,0.150391 0.1575524,0.3580737 0,0.2148443 -0.1503909,0.3652352 -0.150391,0.150391 -0.3652353,0.150391 -0.6230483,0 -1.2102892,0.2076828 Q 6.6771844,5.7480521 6.1973656,6.1419332 6.0756206,6.2421938 5.9753599,6.3496159 5.8750993,6.4498766 5.7676771,6.5572987 5.5958017,6.7291741 5.3809575,6.7291741 q -0.2148442,0 -0.3652352,-0.150391 Q 4.8653313,6.4212307 4.8653313,6.2135479 Z M 11.045684,4.8170603 q 0,-0.2076827 0.150391,-0.3580737 0.157552,-0.1575525 0.365235,-0.1575525 0.479819,0 0.966799,0.1074222 0.486981,0.1002606 0.938154,0.3007819 0.451172,0.2005213 0.852215,0.4941418 0.401043,0.2936204 0.716148,0.6660171 0.128906,0.1647139 0.128906,0.3437508 0,0.2076828 -0.150391,0.3652352 -0.150391,0.150391 -0.358074,0.150391 -0.222005,0 -0.393881,-0.1718754 Q 14.153764,6.4498766 14.053503,6.3496159 13.953243,6.2421938 13.831498,6.1419332 13.351679,5.7480521 12.764438,5.5403693 12.184359,5.3326865 11.56131,5.3326865 q -0.214844,0 -0.365235,-0.150391 -0.150391,-0.1503909 -0.150391,-0.3652352 z"
         style="font-size:14.6667px;fill:#000000;fill-opacity:1;stroke:#000000;stroke-width:0.18897638;stroke-miterlimit:4;stroke-dasharray:none;stroke-opacity:1"
         id="path1289" />
    </g>
    <g
       aria-label="😵"
       id="text1284"
       style="font-size:14.6667px;line-height:1.25;font-family:Impact;-inkscape-font-specification:Impact;letter-spacing:0px;word-spacing:0px;fill:#ff6400;fill-opacity:1;stroke:#ff6400;stroke-width:0.18897638;stroke-miterlimit:4;stroke-dasharray:none;stroke-opacity:1">
      <path
         d="m 10.014432,1.7304647 q 1.138674,0 2.191411,0.2936205 1.052737,0.2936204 1.962244,0.830731 0.916669,0.5371107 1.668624,1.2890655 0.751955,0.7519549 1.289065,1.6686236 0.537111,0.9095073 0.830731,1.9622441 0.293621,1.0527368 0.293621,2.1914113 0,1.1386743 -0.293621,2.1914113 -0.29362,1.052737 -0.830731,1.969406 -0.53711,0.909507 -1.289065,1.661462 -0.751955,0.751955 -1.668624,1.289065 -0.909507,0.537111 -1.962244,0.830731 -1.052737,0.293621 -2.191411,0.293621 -1.1386748,0 -2.1914116,-0.293621 Q 6.7702836,17.614616 5.8536148,17.077505 4.9441075,16.540395 4.1921527,15.78844 3.4401978,15.036485 2.9030872,14.126978 2.3659766,13.210309 2.0723562,12.157572 1.7787357,11.104835 1.7787357,9.9661607 q 0,-1.1386745 0.2936205,-2.1914113 Q 2.3659766,6.7220126 2.9030872,5.8125053 3.4401978,4.8958366 4.1921527,4.1438817 4.9441075,3.3919269 5.8536148,2.8548162 6.7702836,2.3177056 7.8230204,2.0240852 8.8757572,1.7304647 10.014432,1.7304647 Z m 0,15.4401393 q 0.995445,0 1.912113,-0.257813 0.923831,-0.257813 1.725916,-0.73047 0.802085,-0.465496 1.453779,-1.11719 0.658856,-0.658856 1.124352,-1.460941 0.472657,-0.802085 0.73047,-1.718754 0.257813,-0.92383 0.257813,-1.9192753 0,-0.995445 -0.257813,-1.9121138 Q 16.703249,7.1302167 16.230592,6.3281315 15.765096,5.5260463 15.10624,4.8743521 14.454546,4.2154965 13.652461,3.7500006 12.850376,3.2773433 11.926545,3.0195302 11.009877,2.7617171 10.014432,2.7617171 q -0.9954453,0 -1.9192756,0.2578131 Q 7.1784877,3.2773433 6.3764025,3.7500006 5.5743173,4.2154965 4.9154616,4.8743521 4.2637674,5.5260463 3.7911101,6.3281315 3.3256142,7.1302167 3.0678011,8.0540469 q -0.257813,0.9166688 -0.257813,1.9121138 0,0.9954453 0.257813,1.9192753 0.2578131,0.916669 0.723309,1.718754 0.4726573,0.802085 1.1243515,1.460941 0.6588557,0.651694 1.4609409,1.11719 0.8020852,0.472657 1.7187539,0.73047 0.9238303,0.257813 1.9192756,0.257813 z M 9.369899,9.1927214 q 0,0.4010426 -0.150391,0.7591164 Q 9.069117,10.30275 8.8041425,10.567725 8.5391679,10.825538 8.1882556,10.975929 7.8373434,11.12632 7.4363008,11.12632 q -0.2936205,0 -0.5514336,-0.107423 Q 6.6270541,10.904314 6.4336943,10.710954 6.247496,10.517594 6.1329124,10.259781 6.0254902,10.001968 6.0254902,9.7083476 q 0,-0.2363287 0.093099,-0.4440114 Q 6.2116886,9.0494919 6.369241,8.8919395 6.5267935,8.734387 6.7344762,8.6412879 q 0.2148443,-0.093099 0.451173,-0.093099 0.1074221,0 0.2363286,0.035807 0.136068,0.035807 0.2506516,0.1074221 0.1145836,0.064453 0.1861984,0.1647139 0.078776,0.1002607 0.078776,0.2291672 0,0.1647139 -0.1145836,0.2792975 -0.1145836,0.1074221 -0.2792975,0.1074221 -0.1575525,0 -0.2721361,-0.1145836 -0.021484,-0.014323 -0.042969,-0.021484 -0.014323,-0.014323 -0.042969,-0.014323 -0.164714,0 -0.2792976,0.1145836 -0.1074221,0.1074221 -0.1074221,0.272136 0,0.2721361 0.1861984,0.4583343 0.1861983,0.186198 0.4583343,0.186198 0.2363287,0 0.4440115,-0.0931 0.2148442,-0.0931 0.3723967,-0.250651 0.1575524,-0.1575528 0.2434901,-0.3652356 0.093099,-0.2148442 0.093099,-0.4511729 0,-0.2936204 -0.1145836,-0.5514335 Q 8.374454,8.3834748 8.1810941,8.1972764 7.9948958,8.0039166 7.7370827,7.8964945 7.4792696,7.7819109 7.1856492,7.7819109 q -0.4010426,0 -0.7519549,0.150391 Q 6.082782,8.0826928 5.8178075,8.3476674 5.5528329,8.6054805 5.4024419,8.9563928 5.252051,9.307305 5.252051,9.7083476 q 0,0.2578131 0.05013,0.4869804 0.05013,0.229167 0.1432295,0.465496 0.028646,0.06445 0.028646,0.150391 0,0.164714 -0.1145836,0.279297 -0.1074221,0.107422 -0.2721361,0.107422 -0.121745,0 -0.2148442,-0.06445 -0.085938,-0.06445 -0.136068,-0.171875 -0.136068,-0.293621 -0.2005213,-0.608726 -0.057292,-0.322266 -0.057292,-0.6445324 0,-0.558595 0.2076827,-1.0527368 0.2148447,-0.4941447 0.5800799,-0.85938 0.3723967,-0.3652352 0.8665385,-0.5729179 0.4941417,-0.2148443 1.0527368,-0.2148443 0.4511729,0 0.8522154,0.1718754 0.4010426,0.1718754 0.6946631,0.4654959 0.2936205,0.2936204 0.4654959,0.694663 0.1718754,0.4010426 0.1718754,0.8522155 z m 6.180353,-0.5156262 q 0,0.5585951 -0.214845,1.0527368 -0.214844,0.494142 -0.580079,0.859377 -0.365235,0.365235 -0.859377,0.580079 -0.494142,0.214845 -1.052737,0.214845 -0.451173,0 -0.852215,-0.171876 Q 11.589956,11.040382 11.296336,10.7396 11.002715,10.438818 10.83084,10.044937 10.658964,9.6438943 10.658964,9.1927214 q 0,-0.4010426 0.150391,-0.7519548 0.150391,-0.3509123 0.415366,-0.6087254 0.264974,-0.2649745 0.615887,-0.4153655 0.350912,-0.150391 0.751955,-0.150391 0.29362,0 0.551433,0.1145836 0.257813,0.1074221 0.444012,0.3007819 0.193359,0.1933599 0.300782,0.451173 0.114583,0.2578131 0.114583,0.5514335 0,0.2434902 -0.0931,0.4583344 -0.0931,0.2076828 -0.250652,0.3652352 -0.157552,0.150391 -0.372396,0.2434902 -0.207683,0.085938 -0.444012,0.085938 -0.107422,0 -0.24349,-0.035807 -0.128906,-0.035807 -0.24349,-0.1002607 -0.114584,-0.071615 -0.19336,-0.1718754 -0.07161,-0.1002606 -0.07161,-0.2291671 0,-0.164714 0.114584,-0.2721361 0.114584,-0.1145836 0.272136,-0.1145836 0.08594,0 0.136068,0.028646 0.05729,0.021484 0.0931,0.05013 0.03581,0.021484 0.06445,0.05013 0.03581,0.021484 0.07161,0.021484 0.164714,0 0.272136,-0.1074221 0.114584,-0.1145836 0.114584,-0.2792976 0,-0.272136 -0.186198,-0.4511729 -0.186199,-0.1861983 -0.458335,-0.1861983 -0.236329,0 -0.451173,0.093099 -0.207683,0.085938 -0.365235,0.2434901 -0.157552,0.1575524 -0.250652,0.3723967 -0.08594,0.2076828 -0.08594,0.4440114 0,0.2936205 0.107422,0.5514336 0.114583,0.2578135 0.300782,0.4511735 0.19336,0.19336 0.451173,0.307943 0.257813,0.107422 0.551433,0.107422 0.401043,0 0.751955,-0.150391 0.350912,-0.150391 0.615887,-0.415365 0.264974,-0.2649751 0.415365,-0.6158874 0.150391,-0.3509123 0.150391,-0.7519549 0,-0.2506516 -0.05013,-0.4869802 -0.05013,-0.2363287 -0.143229,-0.4654959 -0.02865,-0.064453 -0.02865,-0.150391 0,-0.1647139 0.114583,-0.272136 0.114584,-0.1074221 0.272136,-0.1074221 0.250652,0 0.350913,0.2291672 0.136068,0.2864589 0.193359,0.6158868 0.06445,0.3222664 0.06445,0.6373712 z m -5.53582,3.3515698 q 0.322266,0 0.601564,0.121746 0.279297,0.121745 0.48698,0.329427 0.214844,0.207683 0.336589,0.486981 0.121745,0.279297 0.121745,0.601564 v 0.515626 q 0,0.322266 -0.121745,0.601564 -0.121745,0.279297 -0.336589,0.48698 -0.207683,0.214844 -0.48698,0.336589 -0.279298,0.121745 -0.601564,0.121745 -0.3222667,0 -0.6015642,-0.121745 Q 9.1335703,15.387397 8.918726,15.172553 8.7110433,14.96487 8.5892982,14.685573 8.4675531,14.406275 8.4675531,14.084009 v -0.515626 q 0,-0.322267 0.1217451,-0.601564 0.1217451,-0.279298 0.3294278,-0.486981 0.2148443,-0.207682 0.4941418,-0.329427 0.2792975,-0.121746 0.6015642,-0.121746 z M 4.8653313,6.2135479 q 0,-0.1790369 0.1289066,-0.3437508 Q 5.3021813,5.4974004 5.7032239,5.20378 6.1114279,4.9101595 6.5626008,4.7096382 7.0137738,4.5091169 7.500754,4.4088563 7.9877343,4.3014341 8.4675531,4.3014341 q 0.2076828,0 0.3580738,0.1575525 0.1575524,0.150391 0.1575524,0.3580737 0,0.2148443 -0.1503909,0.3652352 -0.150391,0.150391 -0.3652353,0.150391 -0.6230483,0 -1.2102892,0.2076828 Q 6.6771844,5.7480521 6.1973656,6.1419332 6.0756206,6.2421938 5.9753599,6.3496159 5.8750993,6.4498766 5.7676771,6.5572987 5.5958017,6.7291741 5.3809575,6.7291741 q -0.2148442,0 -0.3652352,-0.150391 Q 4.8653313,6.4212307 4.8653313,6.2135479 Z M 11.045684,4.8170603 q 0,-0.2076827 0.150391,-0.3580737 0.157552,-0.1575525 0.365235,-0.1575525 0.479819,0 0.966799,0.1074222 0.486981,0.1002606 0.938154,0.3007819 0.451172,0.2005213 0.852215,0.4941418 0.401043,0.2936204 0.716148,0.6660171 0.128906,0.1647139 0.128906,0.3437508 0,0.2076828 -0.150391,0.3652352 -0.150391,0.150391 -0.358074,0.150391 -0.222005,0 -0.393881,-0.1718754 Q 14.153764,6.4498766 14.053503,6.3496159 13.953243,6.2421938 13.831498,6.1419332 13.351679,5.7480521 12.764438,5.5403693 12.184359,5.3326865 11.56131,5.3326865 q -0.214844,0 -0.365235,-0.150391 -0.150391,-0.1503909 -0.150391,-0.3652352 z"
         style="font-size:14.6667px;fill:#ff6400;fill-opacity:1;stroke:#ff6400;stroke-width:0.18897638;stroke-miterlimit:4;stroke-dasharray:none;stroke-opacity:1"
         id="path1286" />
    </g>
  </g>
</svg>
